<?xml version="1.0" encoding="utf-8"?>
<!-- Generator: Adobe Illustrator 16.2.1, SVG Export Plug-In . SVG Version: 6.00 Build 0)  -->
<!DOCTYPE svg PUBLIC "-//W3C//DTD SVG 1.1//EN" "http://www.w3.org/Graphics/SVG/1.1/DTD/svg11.dtd">
<svg version="1.1" id="Layer_1" xmlns="http://www.w3.org/2000/svg" xmlns:xlink="http://www.w3.org/1999/xlink" x="0px" y="0px"
	 width="50px" height="50px" viewBox="0 0 50 50" enable-background="new 0 0 50 50" xml:space="preserve">
<path fill-rule="evenodd" clip-rule="evenodd" fill="#FFFFFF" d="M24.761,0.147c-13.76,0-24.919,11.157-24.919,24.923
	c0,11.008,7.14,20.349,17.044,23.646c1.246,0.228,1.7-0.542,1.7-1.202c0-0.591-0.021-2.159-0.033-4.238
	c-6.932,1.507-8.395-3.341-8.395-3.341c-1.134-2.88-2.767-3.646-2.767-3.646c-2.263-1.546,0.171-1.516,0.171-1.516
	c2.501,0.178,3.817,2.569,3.817,2.569c2.223,3.807,5.833,2.708,7.252,2.07c0.226-1.61,0.871-2.709,1.582-3.332
	c-5.534-0.629-11.352-2.767-11.352-12.316c0-2.721,0.971-4.946,2.565-6.688c-0.256-0.631-1.111-3.165,0.244-6.595
	c0,0,2.093-0.67,6.854,2.555c1.987-0.553,4.12-0.829,6.239-0.839c2.118,0.01,4.248,0.287,6.24,0.839
	c4.758-3.225,6.847-2.555,6.847-2.555c1.359,3.431,0.503,5.964,0.247,6.595c1.597,1.742,2.562,3.966,2.562,6.688
	c0,9.573-5.828,11.68-11.38,12.296c0.896,0.771,1.691,2.292,1.691,4.616c0,3.331-0.029,6.019-0.029,6.836
	c0,0.667,0.448,1.441,1.713,1.199c9.895-3.304,17.027-12.637,17.027-23.643C49.683,11.305,38.525,0.147,24.761,0.147z"/>
</svg>
